<svg width="64" height="64" viewBox="0 0 64 64" fill="none" xmlns="http://www.w3.org/2000/svg">
<path d="M13.4321 59.9993C12.8749 59.9993 12.457 59.5814 12.457 59.0242V8.73586C12.457 8.17865 12.8749 7.76074 13.4321 7.76074H49.3723C49.9295 7.76074 50.3474 8.17865 50.3474 8.73586V32.5566C50.3474 33.1138 49.9295 33.5318 49.3723 33.5318C48.8151 33.5318 48.3972 33.1138 48.3972 32.5566V9.71097H14.268V58.1884C14.268 58.1884 14.5 60 13.4321 59.9993Z" fill="black"/>
<path d="M13.4328 56.2386H8.97512C8.4179 56.2386 8 55.8206 8 55.2634V4.97514C8 4.41793 8.4179 4 8.97512 4H44.9152C45.4725 4 45.8904 4.41793 45.8904 4.97514V8.73631C45.8904 9.29352 45.4725 9.71142 44.9152 9.71142H14.2686V55.2634C14.4079 55.8206 13.99 56.2386 13.4328 56.2386ZM9.95023 54.2883H12.4577V8.73631C12.4577 8.1791 12.8756 7.76119 13.4328 7.76119H44.0794V5.81094H9.95023V54.2883Z" fill="black"/>
<path d="M34.7437 15.1436H28.0571C27.4999 15.1436 27.082 14.7257 27.082 14.1685C27.082 13.6113 27.4999 13.1934 28.0571 13.1934H34.7437C35.3009 13.1934 35.7188 13.6113 35.7188 14.1685C35.7188 14.7257 35.3009 15.1436 34.7437 15.1436Z" fill="black"/>
<path d="M41.2965 20.2979H21.6548C21.0976 20.2979 20.6797 19.88 20.6797 19.3228C20.6797 18.7656 21.0976 18.3477 21.6548 18.3477H41.2965C41.8537 18.3477 42.2716 18.7656 42.2716 19.3228C42.2716 19.88 41.8537 20.2979 41.2965 20.2979Z" fill="black"/>
<path d="M41.2965 25.3135H21.6548C21.0976 25.3135 20.6797 24.8956 20.6797 24.3384C20.6797 23.7812 21.0976 23.3633 21.6548 23.3633H41.2965C41.8537 23.3633 42.2716 23.7812 42.2716 24.3384C42.2716 24.8956 41.8537 25.3135 41.2965 25.3135Z" fill="black"/>
<path d="M41.2965 30.4668H21.6548C21.0976 30.4668 20.6797 30.0489 20.6797 29.4917C20.6797 28.9345 21.0976 28.5166 21.6548 28.5166H41.2965C41.8537 28.5166 42.2716 28.9345 42.2716 29.4917C42.2716 30.0489 41.8537 30.4668 41.2965 30.4668Z" fill="black"/>
<path d="M30.7082 35.6212H21.5142C20.957 35.6212 20.5391 35.2032 20.5391 34.646C20.5391 34.0888 20.957 33.6709 21.5142 33.6709H30.7082C31.2654 33.6709 31.6833 34.0888 31.6833 34.646C31.6833 35.2032 31.2654 35.6212 30.7082 35.6212Z" fill="black"/>
<path d="M29.0365 40.7764H21.5142C20.957 40.7764 20.5391 40.3585 20.5391 39.8013C20.5391 39.2441 20.957 38.8262 21.5142 38.8262H29.0365C29.5937 38.8262 30.0117 39.2441 30.0117 39.8013C30.0117 40.3585 29.5937 40.7764 29.0365 40.7764Z" fill="black"/>
<path d="M44.7778 59.8613H40.3201C39.2057 59.8613 38.2306 58.8862 38.2306 57.7717V57.6324L38.0913 57.7717C37.2554 58.6076 35.8624 58.6076 35.1659 57.7717L32.1013 54.7071C31.2654 53.8713 31.2654 52.4782 32.1013 51.7817L32.2406 51.6424H32.1013C30.9868 51.6424 30.0117 50.6673 30.0117 49.5529V45.0952C30.0117 43.9807 30.9868 43.0056 32.1013 43.0056H32.2406L32.1013 42.8663C31.6834 42.4484 31.544 41.8912 31.544 41.334C31.544 40.7768 31.8227 40.2196 32.1013 39.8017L35.1659 36.737C36.0017 35.9012 37.3948 35.9012 38.0913 36.737L38.2306 36.8763V36.737C38.2306 35.6226 39.2057 34.6475 40.3201 34.6475H44.7778C45.8922 34.6475 46.8673 35.6226 46.8673 36.737V36.8763L47.0067 36.737C47.8425 35.9012 49.2355 35.9012 49.932 36.737L52.9967 39.8017C53.8325 40.6375 53.8325 42.0305 52.9967 42.727L52.8574 42.8663H52.9967C54.1111 42.8663 55.0862 43.8415 55.0862 44.9559V49.4136C55.0862 50.528 54.1111 51.5031 52.9967 51.5031H52.8574L52.9967 51.6424C53.4146 52.0603 53.5539 52.6175 53.5539 53.1747C53.5539 53.7319 53.2753 54.2892 52.9967 54.7071L49.932 57.7717C49.0962 58.6076 47.7032 58.6076 47.0067 57.7717L46.8673 57.6324V57.7717C46.8673 58.8862 45.8922 59.8613 44.7778 59.8613ZM39.0664 54.4285C39.2057 54.4285 39.345 54.4285 39.4843 54.5678C39.9022 54.7071 40.0415 54.9857 40.0415 55.4036V57.911C40.0415 58.0503 40.1808 58.1896 40.3201 58.1896H44.7778C44.9171 58.1896 45.0564 58.0503 45.0564 57.911V55.4036C45.0564 54.9857 45.335 54.7071 45.6136 54.5678C46.0315 54.4285 46.3101 54.5678 46.5887 54.7071L48.2604 56.3787C48.3997 56.518 48.539 56.518 48.6783 56.3787L51.7429 53.314L51.8823 53.1747C51.8823 53.1747 51.8822 53.0354 51.7429 53.0354L50.0713 51.3638C49.7927 51.0852 49.7927 50.6673 49.932 50.3887C50.0713 49.9708 50.3499 49.8315 50.7678 49.8315H53.2753C53.4146 49.8315 53.5539 49.6922 53.5539 49.5529V45.0952C53.5539 44.9559 53.4146 44.8166 53.2753 44.8166H50.7678C50.3499 44.8166 50.0713 44.538 49.932 44.2594C49.7927 43.8415 49.932 43.5629 50.0713 43.2843L51.7429 41.6126C51.8822 41.4733 51.8822 41.334 51.7429 41.1947L48.6783 38.13C48.539 37.9907 48.3997 37.9907 48.2604 38.13L46.5887 39.8017C46.3101 40.0803 45.8922 40.0803 45.6136 39.941C45.1957 39.8017 45.0564 39.5231 45.0564 39.1052V36.5977C45.0564 36.4584 44.9171 36.3191 44.7778 36.3191H40.3201C40.1808 36.3191 40.0415 36.4584 40.0415 36.5977V39.1052C40.0415 39.5231 39.7629 39.8017 39.4843 39.941C39.0664 40.0803 38.7878 39.941 38.5092 39.8017L36.8375 38.13C36.6982 37.9907 36.5589 37.9907 36.4196 38.13L33.355 41.1947L33.2157 41.334C33.2157 41.334 33.2157 41.4733 33.355 41.4733L35.0266 43.1449C35.3052 43.4235 35.3052 43.8415 35.1659 44.1201C35.0266 44.538 34.748 44.6773 34.3301 44.6773H31.8226C31.6833 44.6773 31.544 44.8166 31.544 44.9559V49.4136C31.544 49.5529 31.6833 49.6922 31.8226 49.6922H34.3301C34.748 49.6922 35.0266 49.9708 35.1659 50.2494C35.3052 50.6673 35.1659 50.9459 35.0266 51.2245L33.355 52.8961C33.2157 53.0354 33.2157 53.1747 33.355 53.314L36.4196 56.3787C36.5589 56.518 36.6982 56.518 36.8375 56.3787L38.5092 54.7071C38.6485 54.4285 38.9271 54.4285 39.0664 54.4285Z" fill="black"/>
<path d="M42.5462 52.1997C39.7601 52.1997 37.5312 49.9709 37.5312 47.1848C37.5312 44.3988 39.7601 42.1699 42.5462 42.1699C45.3322 42.1699 47.561 44.3988 47.561 47.1848C47.561 49.9709 45.3322 52.1997 42.5462 52.1997ZM42.5462 43.9809C40.8745 43.9809 39.3422 45.3739 39.3422 47.1848C39.3422 48.9957 40.7352 50.3888 42.5462 50.3888C44.2178 50.3888 45.7501 48.9957 45.7501 47.1848C45.7501 45.3739 44.2178 43.9809 42.5462 43.9809Z" fill="black"/>
<path d="M44.7778 59.8613H40.3201C39.2057 59.8613 38.2306 58.8862 38.2306 57.7717V57.6324L38.0913 57.7717C37.2554 58.6076 35.8624 58.6076 35.1659 57.7717L32.1013 54.7071C31.2654 53.8713 31.2654 52.4782 32.1013 51.7817L32.2406 51.6424H32.1013C30.9868 51.6424 30.0117 50.6673 30.0117 49.5529V45.0952C30.0117 43.9807 30.9868 43.0056 32.1013 43.0056H32.2406L32.1013 42.8663C31.6834 42.4484 31.544 41.8912 31.544 41.334C31.544 40.7768 31.8227 40.2196 32.1013 39.8017L35.1659 36.737C36.0017 35.9012 37.3948 35.9012 38.0913 36.737L38.2306 36.8763V36.737C38.2306 35.6226 39.2057 34.6475 40.3201 34.6475H44.7778C45.8922 34.6475 46.8673 35.6226 46.8673 36.737V36.8763L47.0067 36.737C47.8425 35.9012 49.2355 35.9012 49.932 36.737L52.9967 39.8017C53.8325 40.6375 53.8325 42.0305 52.9967 42.727L52.8574 42.8663H52.9967C54.1111 42.8663 55.0862 43.8415 55.0862 44.9559V49.4136C55.0862 50.528 54.1111 51.5031 52.9967 51.5031H52.8574L52.9967 51.6424C53.4146 52.0603 53.5539 52.6175 53.5539 53.1747C53.5539 53.7319 53.2753 54.2892 52.9967 54.7071L49.932 57.7717C49.0962 58.6076 47.7032 58.6076 47.0067 57.7717L46.8673 57.6324V57.7717C46.8673 58.8862 45.8922 59.8613 44.7778 59.8613ZM39.0664 54.4285C39.2057 54.4285 39.345 54.4285 39.4843 54.5678C39.9022 54.7071 40.0415 54.9857 40.0415 55.4036V57.911C40.0415 58.0503 40.1808 58.1896 40.3201 58.1896H44.7778C44.9171 58.1896 45.0564 58.0503 45.0564 57.911V55.4036C45.0564 54.9857 45.335 54.7071 45.6136 54.5678C46.0315 54.4285 46.3101 54.5678 46.5887 54.7071L48.2604 56.3787C48.3997 56.518 48.539 56.518 48.6783 56.3787L51.7429 53.314L51.8823 53.1747C51.8823 53.1747 51.8822 53.0354 51.7429 53.0354L50.0713 51.3638C49.7927 51.0852 49.7927 50.6673 49.932 50.3887C50.0713 49.9708 50.3499 49.8315 50.7678 49.8315H53.2753C53.4146 49.8315 53.5539 49.6922 53.5539 49.5529V45.0952C53.5539 44.9559 53.4146 44.8166 53.2753 44.8166H50.7678C50.3499 44.8166 50.0713 44.538 49.932 44.2594C49.7927 43.8415 49.932 43.5629 50.0713 43.2843L51.7429 41.6126C51.8822 41.4733 51.8822 41.334 51.7429 41.1947L48.6783 38.13C48.539 37.9907 48.3997 37.9907 48.2604 38.13L46.5887 39.8017C46.3101 40.0803 45.8922 40.0803 45.6136 39.941C45.1957 39.8017 45.0564 39.5231 45.0564 39.1052V36.5977C45.0564 36.4584 44.9171 36.3191 44.7778 36.3191H40.3201C40.1808 36.3191 40.0415 36.4584 40.0415 36.5977V39.1052C40.0415 39.5231 39.7629 39.8017 39.4843 39.941C39.0664 40.0803 38.7878 39.941 38.5092 39.8017L36.8375 38.13C36.6982 37.9907 36.5589 37.9907 36.4196 38.13L33.355 41.1947L33.2157 41.334C33.2157 41.334 33.2157 41.4733 33.355 41.4733L35.0266 43.1449C35.3052 43.4235 35.3052 43.8415 35.1659 44.1201C35.0266 44.538 34.748 44.6773 34.3301 44.6773H31.8226C31.6833 44.6773 31.544 44.8166 31.544 44.9559V49.4136C31.544 49.5529 31.6833 49.6922 31.8226 49.6922H34.3301C34.748 49.6922 35.0266 49.9708 35.1659 50.2494C35.3052 50.6673 35.1659 50.9459 35.0266 51.2245L33.355 52.8961C33.2157 53.0354 33.2157 53.1747 33.355 53.314L36.4196 56.3787C36.5589 56.518 36.6982 56.518 36.8375 56.3787L38.5092 54.7071C38.6485 54.4285 38.9271 54.4285 39.0664 54.4285Z" fill="black"/>
<path d="M42.5462 52.1997C39.7601 52.1997 37.5312 49.9709 37.5312 47.1848C37.5312 44.3988 39.7601 42.1699 42.5462 42.1699C45.3322 42.1699 47.561 44.3988 47.561 47.1848C47.561 49.9709 45.3322 52.1997 42.5462 52.1997ZM42.5462 43.9809C40.8745 43.9809 39.3422 45.3739 39.3422 47.1848C39.3422 48.9957 40.7352 50.3888 42.5462 50.3888C44.2178 50.3888 45.7501 48.9957 45.7501 47.1848C45.7501 45.3739 44.2178 43.9809 42.5462 43.9809Z" fill="black"/>
<path d="M24.7165 59.9996C24.02 59.9996 23.3234 59.5817 23.1841 58.8852C22.6269 59.1638 21.7911 59.0245 21.2339 58.6066L19.2837 56.6563C18.7264 56.0991 18.7264 55.4026 19.0051 54.7061C18.3085 54.4275 17.8906 53.8703 17.8906 53.1738V50.3877C17.8906 49.6912 18.3085 48.9947 19.0051 48.8554C18.8657 48.5768 18.8658 48.4375 18.8658 48.1589C18.8658 47.741 19.0051 47.3231 19.423 47.0445L21.3732 45.0942C21.9304 44.537 22.6269 44.537 23.3234 44.8156C23.6021 44.1191 24.1593 43.7012 24.8558 43.7012H27.6418C28.199 43.7012 28.617 44.1191 28.617 44.6763C28.617 45.2335 28.199 45.6514 27.6418 45.6514H25.1344V46.9051C25.1344 47.323 24.8558 47.6017 24.5772 47.741C24.2986 47.8803 23.8807 47.741 23.602 47.6017L22.6269 46.6265L20.9553 48.2982L21.9304 49.2733C22.209 49.5519 22.209 49.9698 22.0697 50.2484C21.9304 50.6663 21.6518 50.8056 21.2339 50.8056H19.9802V53.1738H21.2339C21.6518 53.1738 21.9304 53.4524 22.0697 53.731C22.209 54.1489 22.0697 54.4275 21.9304 54.7061L20.9553 55.6812L22.6269 57.3529L23.602 56.3777C23.8807 56.0991 24.2986 56.0991 24.5772 56.2384C24.9951 56.3777 25.1344 56.6563 25.1344 57.0742V58.4673C25.5523 58.6066 25.8309 58.8852 25.8309 59.4424C25.5523 59.5817 25.1344 59.9996 24.7165 59.9996Z" fill="black"/>
<path d="M26.1115 55.1243C24.1612 55.1243 22.6289 53.592 22.6289 51.6417C22.6289 49.6915 24.1612 48.1592 26.1115 48.1592C28.0617 48.1592 29.594 49.6915 29.594 51.6417C29.594 53.592 27.9224 55.1243 26.1115 55.1243ZM26.1115 50.1094C25.2757 50.1094 24.4398 50.8059 24.4398 51.781C24.4398 52.7562 25.1364 53.4527 26.1115 53.4527C27.0866 53.4527 27.7831 52.7562 27.7831 51.781C27.7831 50.8059 26.9473 50.1094 26.1115 50.1094Z" fill="black"/>
</svg>
