<svg width="64" height="64" viewBox="0 0 64 64" fill="none" xmlns="http://www.w3.org/2000/svg">
<path d="M15.9816 59.9995C15.707 59.9995 15.4324 59.8622 15.2951 59.7249C14.8832 59.3131 15.0205 58.7639 15.2951 58.4893L16.668 57.1164C17.9036 56.0181 19.4138 55.3317 21.1986 55.3317H36.3005C37.948 55.3317 39.5955 54.7825 40.9684 53.8215L54.6974 44.4857C55.2466 44.0739 55.6584 43.5247 55.6584 42.8382C55.6584 42.1518 55.5211 41.4653 54.972 41.0535C54.1482 40.2297 53.0499 40.0924 52.0889 40.7789L37.5361 49.9773C37.3988 50.1146 37.2615 50.1146 36.987 50.1146H25.7292C25.18 50.1146 24.7681 49.7028 24.7681 49.1536C24.7681 48.6044 25.18 48.1926 25.7292 48.1926H36.8497L51.2651 38.9941C52.9126 37.8958 55.1093 38.1704 56.4822 39.5433C57.3059 40.367 57.8551 41.6026 57.7178 42.8382C57.5805 44.0739 56.894 45.1722 55.933 45.8586L42.204 55.1944C40.5565 56.2927 38.4972 56.9791 36.4378 56.9791H21.3359C20.1003 56.9791 19.0019 57.391 18.1782 58.2147L16.8053 59.5877C16.5307 59.9995 16.2561 59.9995 15.9816 59.9995Z" fill="black"/>
<path d="M7.87781 50.1157C7.74052 50.1157 7.46595 50.1157 7.32866 49.9784C6.91679 49.7038 6.91678 49.0174 7.19136 48.7428C14.0559 40.0935 23.5289 39.4071 30.1188 40.3681C34.5121 41.0545 37.9444 44.8987 37.9444 49.2919C37.9444 49.8411 37.5325 50.253 36.9833 50.253C36.4342 50.253 36.0223 49.8411 36.0223 49.2919C36.0223 45.7224 33.4138 42.702 29.8442 42.1529C23.6662 41.3291 14.8796 41.8783 8.56426 49.8411C8.42697 49.9784 8.15239 50.1157 7.87781 50.1157Z" fill="black"/>
<path d="M11.171 25.5399C10.0727 25.5399 8.97435 25.1281 8.2879 24.3043C7.46416 23.4806 6.91498 22.245 7.05227 21.0093C7.18956 19.7737 7.87602 18.6754 8.83705 17.989L22.5661 8.65323C24.2136 7.55491 26.2729 6.86846 28.3323 6.86846H43.4342C44.6698 6.86846 45.7681 6.45659 46.5919 5.63285L47.9648 4.25994C48.3766 3.84807 48.9258 3.98536 49.2004 4.25994C49.6123 4.67181 49.475 5.22098 49.2004 5.49556L47.8275 6.86846C46.5919 7.96678 45.0817 8.65323 43.2969 8.65323H28.195C26.5475 8.65323 24.9 9.20239 23.5271 10.1634L9.79808 19.4992C9.24892 19.911 8.83705 20.4602 8.83705 21.1466C8.83705 21.8331 8.97434 22.5195 9.5235 22.9314C10.3472 23.7552 11.4456 23.8924 12.4066 23.206L26.9594 13.8703C27.0966 13.733 27.2339 13.733 27.5085 13.733H38.9036C39.4528 13.733 39.8646 14.1448 39.8646 14.694C39.8646 15.2432 39.4528 15.655 38.9036 15.655H27.7831L13.3676 24.8535C12.6812 25.2653 11.9947 25.5399 11.171 25.5399Z" fill="black"/>
<path d="M38.7657 23.8919C37.2555 23.8919 35.7453 23.7546 34.3724 23.6173C29.9791 22.9309 26.5469 19.0867 26.5469 14.6935C26.5469 14.1443 26.9587 13.7324 27.5079 13.7324C28.0571 13.7324 28.4689 14.1443 28.4689 14.6935C28.4689 18.263 31.0774 21.2834 34.647 21.8325C40.825 22.6563 49.6116 22.1071 55.927 14.1443C56.2016 13.7324 56.888 13.7324 57.1626 14.007C57.5744 14.2816 57.5745 14.968 57.2999 15.2426C51.8083 22.1071 44.8065 23.8919 38.7657 23.8919Z" fill="black"/>
<path d="M14.8784 41.0542C14.7412 41.0542 14.4666 41.0542 14.3293 40.9169L13.9174 40.6423C12.6818 39.8186 12.2699 38.3084 12.6818 36.7982C13.0937 35.4253 14.4666 34.4643 15.9768 34.4643H18.1734C18.8599 34.4643 19.409 34.0524 19.6836 33.3659L20.3701 31.3066C20.7819 29.9337 22.1548 28.9727 23.665 28.9727C25.1752 28.9727 26.4108 29.9337 26.96 31.3066L27.6464 33.3659C27.921 34.0524 28.4702 34.4643 29.1566 34.4643H31.3533C32.5889 34.4643 33.6872 35.0134 34.2364 36.1117C34.9228 37.2101 34.9228 38.4457 34.3737 39.544C34.0991 39.9559 33.5499 40.0932 33.138 39.9559C32.7262 39.6813 32.5889 39.1321 32.7262 38.7203C33.0008 38.3084 33.0008 37.6219 32.7262 37.2101C32.5889 36.9355 32.177 36.5236 31.3533 36.5236H29.1566C27.6464 36.5236 26.4108 35.5626 25.8617 34.1897L25.1752 32.1303C24.9006 31.3066 24.2142 31.032 23.665 31.032C23.1159 31.032 22.4294 31.3066 22.1548 32.1303L21.4684 34.1897C21.0565 35.5626 19.6836 36.5236 18.1734 36.5236H15.9768C15.153 36.5236 14.6039 37.0728 14.4666 37.6219C14.3293 38.1711 14.3293 38.8575 15.0157 39.4067L15.4276 39.6813C15.8395 39.9559 15.9768 40.505 15.5649 40.9169C15.4276 40.9169 15.153 41.0542 14.8784 41.0542Z" fill="black"/>
<path d="M47.8298 38.1701C47.2806 38.1701 46.5941 38.0328 46.1823 37.6209L44.8094 36.5226C44.3975 36.248 43.9856 36.248 43.5738 36.5226L42.2009 37.6209C41.1025 38.3074 39.8669 38.3074 38.7686 37.6209C37.6703 36.9345 37.2584 35.5616 37.6703 34.326L38.2195 32.6785C38.3567 32.2666 38.2195 31.7175 37.8076 31.4429L36.4347 30.3446C35.3364 29.6581 34.9245 28.2852 35.3364 27.0496C35.7482 25.814 36.8465 24.9902 38.0822 24.9902H39.8669C40.2788 24.9902 40.5534 24.853 40.828 24.4411C41.1025 24.0292 41.6517 23.8919 42.0636 24.1665C42.4754 24.4411 42.6127 24.9902 42.3382 25.4021C41.789 26.2259 40.828 26.775 39.8669 26.775H38.0822C37.3957 26.775 37.1211 27.3242 37.1211 27.4615C37.1211 27.5988 36.9838 28.2852 37.533 28.6971L38.9059 29.7954C39.8669 30.4818 40.2788 31.8548 40.0042 33.0904L39.4551 34.7378C39.1805 35.4243 39.7296 35.8362 39.8669 35.9735C40.0042 36.1107 40.5534 36.3853 41.1025 35.9735L42.4754 34.8751C43.4365 34.1887 44.8094 34.1887 45.9077 34.8751L47.2806 35.9735C47.8298 36.3853 48.3789 36.1107 48.5162 35.9735C48.6535 35.8362 49.0654 35.4243 48.9281 34.7378L48.3789 33.0904C47.9671 31.8548 48.3789 30.6191 49.4772 29.7954L50.8502 28.6971C51.3993 28.2852 51.262 27.736 51.262 27.4615C51.262 27.3242 50.9874 26.775 50.301 26.775H48.5162C47.2806 26.775 46.1823 25.9513 45.7704 24.7157V24.5784C45.6331 24.0292 45.9077 23.6173 46.3196 23.48C46.8687 23.3428 47.2806 23.6173 47.4179 24.0292V24.1665C47.5552 24.5784 47.9671 24.853 48.3789 24.853H50.1637C51.3993 24.853 52.4976 25.6767 52.9095 26.9123C53.3214 28.1479 52.9095 29.3835 51.8112 30.2073L50.4383 31.3056C50.0264 31.5802 49.8891 31.992 50.0264 32.5412L50.5756 34.1887C50.9874 35.4243 50.5756 36.6599 49.4772 37.4837C49.0654 38.0328 48.3789 38.1701 47.8298 38.1701Z" fill="black"/>
<path d="M24.9032 27.1873C23.2557 27.1873 21.8828 25.8144 21.8828 24.1669C21.8828 22.5194 23.2557 21.1465 24.9032 21.1465C26.5507 21.1465 27.9236 22.5194 27.9236 24.1669C27.9236 25.8144 26.688 27.1873 24.9032 27.1873ZM24.9032 22.9313C24.2167 22.9313 23.6676 23.4804 23.6676 24.1669C23.6676 24.8533 24.2167 25.4025 24.9032 25.4025C25.5896 25.4025 26.1388 24.8533 26.1388 24.1669C26.1388 23.4804 25.5896 22.9313 24.9032 22.9313Z" fill="black"/>
<path d="M10.9016 34.4643C8.9795 34.4643 7.33203 32.8168 7.33203 30.8947C7.33203 28.9727 8.9795 27.3252 10.9016 27.3252C12.8236 27.3252 14.4711 28.9727 14.4711 30.8947C14.4711 32.9541 12.8236 34.4643 10.9016 34.4643ZM10.9016 29.2473C9.94053 29.2473 9.25409 30.071 9.25409 30.8947C9.25409 31.8558 10.0778 32.5422 10.9016 32.5422C11.8626 32.5422 12.549 31.7185 12.549 30.8947C12.549 30.071 11.8626 29.2473 10.9016 29.2473Z" fill="black"/>
</svg>
