<svg width="64" height="64" viewBox="0 0 64 64" fill="none" xmlns="http://www.w3.org/2000/svg">
<path d="M26.0426 59.9988H12.7833C12.2191 59.9988 11.7959 59.5756 11.7959 59.0114V39.4045H7.98739C7.42317 39.4045 7 38.9813 7 38.4171V23.8882C7 19.9387 10.2443 16.6943 14.1939 16.6943H24.6321C28.5817 16.6943 31.826 19.9387 31.826 23.8882V38.4171C31.826 38.9813 31.4028 39.4045 30.8386 39.4045H27.0301V59.0114C26.889 59.5756 26.4658 59.9988 26.0426 59.9988ZM13.7707 58.024H25.0553V38.4171C25.0553 37.8529 25.4784 37.4297 26.0426 37.4297H29.8512V23.8882C29.8512 21.0671 27.4532 18.6691 24.6321 18.6691H14.1939C11.3727 18.6691 8.97479 21.0671 8.97479 23.8882V37.4297H12.7833C13.3475 37.4297 13.7707 37.8529 13.7707 38.4171V58.024Z" fill="black"/>
<path d="M19.4132 59.9996C18.849 59.9996 18.4258 59.5764 18.4258 59.0122V41.6622C18.4258 41.098 18.849 40.6748 19.4132 40.6748C19.9774 40.6748 20.4006 41.098 20.4006 41.6622V59.0122C20.4006 59.5764 19.9774 59.9996 19.4132 59.9996Z" fill="black"/>
<path d="M12.7804 39.4061C12.2161 39.4061 11.793 38.983 11.793 38.4187V25.4415C11.793 24.8773 12.2161 24.4541 12.7804 24.4541C13.3446 24.4541 13.7678 24.8773 13.7678 25.4415V38.4187C13.7678 38.983 13.3446 39.4061 12.7804 39.4061Z" fill="black"/>
<path d="M26.046 39.4061C25.4817 39.4061 25.0586 38.983 25.0586 38.4187V25.4415C25.0586 24.8773 25.4817 24.4541 26.046 24.4541C26.6102 24.4541 27.0334 24.8773 27.0334 25.4415V38.4187C26.8923 38.983 26.4691 39.4061 26.046 39.4061Z" fill="black"/>
<path d="M19.8376 15.8488C19.6965 15.8488 19.6965 15.8488 19.8376 15.8488C18.5681 15.8488 16.7344 15.4256 15.3238 12.7455C14.6185 11.476 14.1953 9.92439 14.1953 8.2317V6.82114C14.1953 6.68008 14.1953 6.53904 14.3364 6.39798C14.9006 5.55164 17.1575 4 19.5555 4C22.0945 4 25.0567 5.55163 25.0567 6.9622V8.2317C25.0567 9.92439 24.6335 11.476 23.9282 12.7455C22.6587 15.4256 20.966 15.8488 19.8376 15.8488ZM16.1701 7.24431V8.37277C16.1701 9.64228 16.4522 10.9118 17.0164 12.0403C17.7217 13.4508 18.5681 14.0151 19.6965 14.1561C20.825 14.1561 21.6713 13.4508 22.3766 12.0403C22.9409 11.0529 23.2229 9.78334 23.2229 8.37277V7.24431C22.7998 6.82114 21.3892 5.97481 19.6965 5.97481C18.0038 5.97481 16.5933 6.82114 16.1701 7.24431Z" fill="black"/>
<path d="M33.8008 59.9996H7.98739C7.42317 59.9996 7 59.5764 7 59.0122C7 58.4479 7.42317 58.0248 7.98739 58.0248H33.8008C34.0829 58.0248 34.224 57.8837 34.224 57.6016V52.5236C34.224 52.1004 34.5061 51.6772 34.9293 51.6772C36.763 51.254 38.5967 50.4077 40.2894 49.4203C40.7126 49.1382 41.1358 49.2792 41.4179 49.5614L45.0853 53.2288C45.2264 53.3699 45.5085 53.3699 45.6496 53.2288L51.1508 47.7276C51.2918 47.5866 51.2918 47.3044 51.1508 47.1634L47.4833 43.4959C47.2012 43.2138 47.0601 42.6496 47.3422 42.3675C48.3296 40.6748 49.0349 38.9821 49.5992 37.0073C49.7402 36.5841 50.0223 36.302 50.4455 36.302H55.5236C55.8057 36.302 55.9467 36.161 55.9467 35.8788V28.1207C55.9467 27.8386 55.8057 27.6975 55.5236 27.6975H50.4455C50.0223 27.6975 49.5992 27.4154 49.5992 26.9923C49.176 25.1585 48.3296 23.3248 47.3422 21.6321C47.0601 21.2089 47.2012 20.7858 47.4833 20.5037L51.1508 16.8362C51.2918 16.6951 51.2918 16.413 51.1508 16.272L45.6496 10.7707C45.5085 10.6297 45.2264 10.6297 45.0853 10.7707L41.4179 14.4382C41.1358 14.7203 40.5715 14.8614 40.2894 14.5793C38.5967 13.5919 36.904 12.8866 34.9293 12.3224C34.5061 12.1813 34.224 11.8992 34.224 11.476V6.39798C34.224 6.11587 34.0829 5.97481 33.8008 5.97481H29.7101C29.1459 5.97481 28.7228 5.55164 28.7228 4.98741C28.7228 4.42319 29.1459 4 29.7101 4H33.8008C35.0703 4 36.0577 4.98741 36.0577 6.25692V10.6297C37.6093 11.0529 39.161 11.7581 40.5715 12.4634L43.6747 9.36016C44.5211 8.51382 46.0727 8.51382 46.9191 9.36016L52.4203 14.8614C53.2666 15.7077 53.2666 17.2593 52.4203 18.1057L49.317 21.2089C50.1634 22.6195 50.7276 24.1711 51.1508 25.7228H55.5236C56.7931 25.7228 57.7804 26.7101 57.7804 27.9797V35.5967C57.7804 36.8663 56.7931 37.8536 55.5236 37.8536H51.1508C50.7276 39.4053 50.0223 40.9569 49.317 42.3675L52.4203 45.4707C53.2666 46.3171 53.2666 47.8687 52.4203 48.715L46.9191 54.2162C46.0727 55.0626 44.5211 55.0626 43.6747 54.2162L40.5715 51.113C39.161 51.9593 37.6093 52.5236 36.0577 52.9467V57.3195C36.1987 58.8711 35.0703 59.9996 33.8008 59.9996Z" fill="black"/>
<path d="M29.9952 54.075C29.431 54.075 29.0078 53.6519 29.0078 53.0876C29.0078 52.5234 29.431 52.1002 29.9952 52.1002C41.1387 52.1002 50.1663 43.0726 50.1663 31.9291C50.1663 20.7856 41.1387 11.758 29.9952 11.758C29.431 11.758 29.0078 11.3348 29.0078 10.7706C29.0078 10.2064 29.431 9.7832 29.9952 9.7832C42.1261 9.7832 52.1411 19.6572 52.1411 31.9291C52.1411 44.2011 42.1261 54.075 29.9952 54.075Z" fill="black"/>
<path d="M29.9952 44.4835C29.431 44.4835 29.0078 44.0603 29.0078 43.4961C29.0078 42.9318 29.431 42.5087 29.9952 42.5087C35.9196 42.5087 40.5745 37.7127 40.5745 31.9294C40.5745 27.4156 37.7534 23.466 33.5216 21.9144C33.0985 21.7733 32.8164 21.2091 32.9574 20.6449C33.0985 20.2217 33.6627 19.9396 34.2269 20.0806C39.1639 21.7733 42.5493 26.5692 42.5493 31.9294C42.5493 38.9822 36.907 44.4835 29.9952 44.4835Z" fill="black"/>
<path d="M56.9381 59.9992H39.8702C39.306 59.9992 38.8828 59.576 38.8828 59.0118C38.8828 58.4476 39.306 58.0244 39.8702 58.0244H56.9381C57.5023 58.0244 57.9255 58.4476 57.9255 59.0118C57.9255 59.576 57.5023 59.9992 56.9381 59.9992Z" fill="black"/>
</svg>
