<svg width="30" height="28" fill="none" xmlns="http://www.w3.org/2000/svg"><path fill-rule="evenodd" clip-rule="evenodd" d="M.55 1.5c0-.39.31-.7.7-.7h4.96a.7.7 0 0 1 .69.56l1.13 5.69h20.72a.7.7 0 0 1 .69.83l-1.99 10.49a3.2 3.2 0 0 1-3.17 2.58H12.02a3.17 3.17 0 0 1-3.17-2.58L6.77 7.92a.7.7 0 0 1-.01-.07L5.64 2.2H1.25a.7.7 0 0 1-.7-.7ZM8.3 8.45l1.92 9.65A1.8 1.8 0 0 0 12 19.55H24.3a1.77 1.77 0 0 0 1.78-1.45l1.83-9.65H8.3ZM19 16.5a.5.5 0 1 1-1 0 .5.5 0 0 1 1 0Zm-6.58 11.25a2.5 2.5 0 1 0 0-5 2.5 2.5 0 0 0 0 5Zm11.17 0a2.5 2.5 0 1 0 0-5 2.5 2.5 0 0 0 0 5Z" fill="#000"/></svg>