<svg xmlns="http://www.w3.org/2000/svg"><path d="M13.3 3.9a.8.8 0 1 0 0 1.6.8.8 0 0 0 0-1.6Z"/><path fill-rule="evenodd" clip-rule="evenodd" d="M9.6 5.08a3.92 3.92 0 1 0-1.14 7.77A3.92 3.92 0 0 0 9.6 5.08ZM7.97 6.9a2.32 2.32 0 1 1 2.14 4.13A2.32 2.32 0 0 1 7.96 6.9Z"/><path fill-rule="evenodd" clip-rule="evenodd" d="M.39 5.1c0-2.6 2.1-4.71 4.7-4.71h7.81c2.6 0 4.71 2.1 4.71 4.7v7.82c0 .94-.28 1.83-.76 2.57a.43.43 0 0 1-.24.33 4.7 4.7 0 0 1-3.7 1.8H5.08a4.7 4.7 0 0 1-4.7-4.7V5.09Zm4.7-3.11A3.1 3.1 0 0 0 2 5.09v7.82a3.1 3.1 0 0 0 3.1 3.1h7.81a3.1 3.1 0 0 0 3.11-3.1V5.09a3.1 3.1 0 0 0-3.1-3.1H5.08Z"/></svg>