<svg width="64" height="64" viewBox="0 0 64 64" fill="none" xmlns="http://www.w3.org/2000/svg">
<path d="M34.6427 52.1996H29.2099C28.0955 52.1996 27.2596 51.3638 27.2596 50.2494V47.324C26.2845 47.0454 25.3094 46.6275 24.3342 46.2095L22.2447 48.2991C21.5482 48.9956 20.2944 48.9956 19.5979 48.2991L15.6974 44.3986C15.2795 43.9807 15.1402 43.5628 15.1402 43.0055C15.1402 42.4483 15.2795 42.0304 15.6974 41.6125L17.787 39.5229C17.369 38.5478 16.9511 37.712 16.6725 36.5976H13.7471C12.6327 36.5976 11.7969 35.7617 11.7969 34.6473V29.2144C11.7969 28.1 12.6327 27.2642 13.7471 27.2642H16.6725C16.9511 26.2891 17.369 25.3139 17.787 24.3388L15.6974 22.2492C15.2795 21.8313 15.1402 21.4134 15.1402 20.8562C15.1402 20.299 15.2795 19.8811 15.6974 19.4631L19.5979 15.5626C20.2944 14.8661 21.5482 14.8661 22.2447 15.5626L24.3342 17.6522C25.3094 17.2343 26.1452 16.8164 27.2596 16.5378V13.6124C27.2596 12.4979 28.0955 11.6621 29.2099 11.6621H34.6427C35.7572 11.6621 36.593 12.4979 36.593 13.6124V16.5378C37.5681 16.8164 38.5433 17.2343 39.5184 17.6522L41.608 15.5626C42.3045 14.8661 43.5582 14.8661 44.2547 15.5626L48.1552 19.4631C48.5732 19.8811 48.7125 20.299 48.7125 20.8562C48.7125 21.4134 48.5732 21.8313 48.1552 22.2492L46.0657 24.3388C46.4836 25.3139 46.9015 26.1497 47.1801 27.2642H50.1055C51.2199 27.2642 52.0558 28.1 52.0558 29.2144V34.6473C52.0558 35.7617 51.2199 36.5976 50.1055 36.5976H47.1801C46.9015 37.5727 46.4836 38.5478 46.0657 39.5229L48.1552 41.6125C48.5732 42.0304 48.7125 42.4483 48.7125 43.0055C48.7125 43.5628 48.5732 43.9807 48.1552 44.3986L44.2547 48.2991C43.5582 48.9956 42.3045 48.9956 41.608 48.2991L39.5184 46.2095C38.5433 46.6275 37.7075 47.0454 36.593 47.324V50.2494C36.4537 51.2245 35.6179 52.1996 34.6427 52.1996ZM24.1949 43.9807C24.3342 43.9807 24.4735 43.9807 24.6129 44.12C25.7273 44.8165 26.981 45.3737 28.3741 45.6523C28.792 45.7916 29.0706 46.0702 29.0706 46.4881V50.1101H34.5035V46.3488C34.5035 45.9309 34.7821 45.513 35.2 45.513C36.4537 45.2344 37.7074 44.6772 38.9612 43.9807C39.3791 43.7021 39.797 43.8414 40.0756 44.12L42.7224 46.7668L46.6229 42.8662L43.9761 40.2195C43.6975 39.9409 43.5582 39.3836 43.8368 39.105C44.5334 37.9906 45.0906 36.7369 45.3692 35.3438C45.5085 34.9259 45.7871 34.6473 46.205 34.6473H49.8269V29.2144H46.0657C45.6478 29.2144 45.2299 28.9358 45.2299 28.5179C44.9513 27.2642 44.394 26.0104 43.6975 24.7567C43.4189 24.3388 43.5582 23.9209 43.8368 23.6423L46.4836 20.9955L42.5831 17.095L39.9363 19.7418C39.6577 20.0204 39.1005 20.1597 38.8219 19.8811C37.7074 19.1845 36.4537 18.6273 35.0607 18.3487C34.6428 18.2094 34.3641 17.9308 34.3641 17.5129V13.891H28.9313V17.6522C28.9313 18.0701 28.6527 18.488 28.2348 18.488C26.981 18.7666 25.7273 19.3238 24.4735 20.0204C24.0556 20.299 23.6377 20.1597 23.3591 19.8811L20.7123 17.2343L16.8118 21.1348L19.4586 23.7816C19.7372 24.0602 19.8765 24.6174 19.5979 24.896C18.9014 26.0104 18.3442 27.2642 18.0656 28.6572C17.9263 29.0751 17.6476 29.3537 17.2297 29.3537H13.6078V34.7866H17.369C17.787 34.7866 18.2049 35.0652 18.2049 35.4831C18.4835 36.7369 19.0407 37.9906 19.7372 39.2443C20.0158 39.6622 19.8765 40.0802 19.5979 40.3588L16.9511 43.0055L20.8516 46.9061L23.4984 44.2593C23.777 44.12 23.9163 43.9807 24.1949 43.9807Z" fill="black"/>
<path d="M31.8565 43.9805C25.3092 43.9805 20.0156 38.687 20.0156 32.1397C20.0156 25.5924 25.3092 20.2988 31.8565 20.2988C38.4038 20.2988 43.6973 25.5924 43.6973 32.1397C43.6973 38.5477 38.4038 43.9805 31.8565 43.9805ZM31.8565 21.9705C26.2843 21.9705 21.8266 26.4282 21.8266 32.0004C21.8266 37.5725 26.2843 42.0303 31.8565 42.0303C37.4286 42.0303 41.8864 37.5725 41.8864 32.0004C41.8864 26.5675 37.4286 21.9705 31.8565 21.9705Z" fill="black"/>
<path d="M31.8559 38.1299C28.5126 38.1299 25.7266 35.3438 25.7266 32.0005C25.7266 28.6572 28.5126 25.8711 31.8559 25.8711C35.1992 25.8711 37.9853 28.6572 37.9853 32.0005C37.9853 35.3438 35.1992 38.1299 31.8559 38.1299ZM31.8559 27.8213C29.4878 27.8213 27.6768 29.7716 27.6768 32.0005C27.6768 34.3686 29.6271 36.1796 31.8559 36.1796C34.2241 36.1796 36.0351 34.2293 36.0351 32.0005C36.1744 29.7716 34.2241 27.8213 31.8559 27.8213Z" fill="black"/>
<path d="M31.8608 60C16.3981 60 4 47.4627 4 32.1392C4 31.582 4.41792 31.1641 4.97514 31.1641C5.53235 31.1641 5.95026 31.582 5.95026 32.1392C5.95026 46.4875 17.6518 58.1891 32.0001 58.1891C32.5574 58.1891 32.9753 58.607 32.9753 59.1642C32.836 59.5821 32.418 60 31.8608 60Z" fill="black"/>
<path d="M58.8791 32.9753C58.3218 32.9753 57.9039 32.5573 57.9039 32.0001C57.9039 17.6518 46.2024 5.95026 31.854 5.95026C31.2968 5.95026 30.8789 5.53235 30.8789 4.97513C30.8789 4.41791 31.2968 4 31.854 4C47.3168 4 59.7149 16.5374 59.7149 31.8608C59.8542 32.5574 59.4363 32.9753 58.8791 32.9753Z" fill="black"/>
</svg>
