<?xml version="1.0" encoding="utf-8"?><svg xmlns="http://www.w3.org/2000/svg" xmlns:xlink="http://www.w3.org/1999/xlink"><symbol fill="none" viewBox="0 0 64 64" id="icon-advantage-1" xmlns="http://www.w3.org/2000/svg"><path d="M26.043 59.999h-13.26a.964.964 0 01-.987-.988V39.404H7.987A.964.964 0 017 38.417V23.888c0-3.95 3.244-7.194 7.194-7.194h10.438c3.95 0 7.194 3.245 7.194 7.194v14.53a.964.964 0 01-.987.986H27.03v19.607c-.141.565-.564.988-.987.988zM13.77 58.024h11.284V38.417c0-.564.423-.987.988-.987h3.808V23.888c0-2.82-2.398-5.219-5.219-5.219H14.194c-2.821 0-5.22 2.398-5.22 5.22v13.54h3.81c.563 0 .987.424.987.988v19.607z" fill="#000"/><path d="M19.413 60a.964.964 0 01-.987-.988v-17.35c0-.564.423-.987.987-.987.564 0 .988.423.988.987v17.35a.964.964 0 01-.988.988zM12.78 39.406a.964.964 0 01-.987-.987V25.442c0-.565.423-.988.987-.988.565 0 .988.423.988.988v12.977a.964.964 0 01-.988.987zM26.046 39.406a.964.964 0 01-.987-.987V25.442c0-.565.423-.988.987-.988.564 0 .987.423.987.988v12.977c-.14.564-.564.987-.987.987zM19.838 15.849c-.142 0-.142 0 0 0-1.27 0-3.104-.423-4.514-3.104-.706-1.269-1.129-2.82-1.129-4.513v-1.41c0-.142 0-.283.141-.424C14.901 5.552 17.157 4 19.556 4c2.538 0 5.5 1.552 5.5 2.962v1.27c0 1.692-.422 3.244-1.128 4.514-1.27 2.68-2.962 3.103-4.09 3.103zM16.17 7.244v1.129c0 1.27.282 2.539.846 3.667.706 1.41 1.552 1.975 2.68 2.116 1.129 0 1.975-.705 2.68-2.116.565-.987.847-2.257.847-3.667V7.244c-.423-.423-1.834-1.27-3.526-1.27-1.693 0-3.104.847-3.527 1.27z" fill="#000"/><path d="M33.8 60H7.988A.964.964 0 017 59.012c0-.564.423-.987.987-.987h25.814c.282 0 .423-.141.423-.423v-5.078c0-.424.282-.847.705-.847 1.834-.423 3.668-1.27 5.36-2.257.424-.282.847-.14 1.129.141l3.667 3.668a.429.429 0 00.565 0l5.5-5.501a.43.43 0 000-.565l-3.667-3.667c-.282-.282-.423-.846-.14-1.129.987-1.692 1.692-3.385 2.256-5.36.141-.423.423-.705.847-.705h5.078c.282 0 .423-.141.423-.423V28.12c0-.282-.141-.423-.423-.423h-5.078c-.424 0-.847-.283-.847-.706-.423-1.834-1.27-3.667-2.257-5.36-.282-.423-.14-.846.141-1.128l3.668-3.668a.43.43 0 000-.564l-5.501-5.501a.43.43 0 00-.565 0l-3.667 3.667c-.282.282-.846.423-1.129.141-1.692-.987-3.385-1.692-5.36-2.257-.423-.14-.705-.423-.705-.846V6.398c0-.282-.141-.423-.423-.423h-4.09a.964.964 0 01-.988-.988c0-.564.423-.987.987-.987h4.09c1.27 0 2.258.987 2.258 2.257v4.373c1.551.423 3.103 1.128 4.514 1.833l3.103-3.103c.846-.846 2.398-.846 3.244 0l5.501 5.501c.847.847.847 2.398 0 3.245l-3.103 3.103c.846 1.41 1.41 2.962 1.834 4.514h4.373c1.27 0 2.256.987 2.256 2.257v7.617c0 1.27-.987 2.257-2.256 2.257H51.15c-.423 1.551-1.129 3.103-1.834 4.514l3.103 3.103c.847.846.847 2.398 0 3.244l-5.5 5.501c-.847.847-2.399.847-3.245 0l-3.103-3.103c-1.411.846-2.963 1.41-4.514 1.834v4.372c.14 1.552-.988 2.68-2.257 2.68z" fill="#000"/><path d="M29.995 54.075a.964.964 0 01-.987-.987c0-.565.423-.988.987-.988 11.144 0 20.171-9.027 20.171-20.17 0-11.144-9.027-20.172-20.17-20.172a.964.964 0 01-.988-.987c0-.565.423-.988.987-.988 12.131 0 22.146 9.874 22.146 22.146S42.126 54.075 29.995 54.075z" fill="#000"/><path d="M29.995 44.483a.964.964 0 01-.987-.987c0-.564.423-.987.987-.987 5.925 0 10.58-4.796 10.58-10.58 0-4.513-2.822-8.463-7.053-10.015-.423-.14-.706-.705-.565-1.27.142-.422.706-.704 1.27-.563 4.937 1.692 8.322 6.488 8.322 11.848 0 7.053-5.642 12.555-12.554 12.555zM56.938 60H39.87a.964.964 0 01-.987-.988c0-.564.423-.988.987-.988h17.068c.564 0 .987.424.987.988a.964.964 0 01-.987.987z" fill="#000"/></symbol><symbol fill="none" viewBox="0 0 64 64" id="icon-advantage-2" xmlns="http://www.w3.org/2000/svg"><path d="M13.432 60a.952.952 0 01-.975-.976V8.736c0-.557.418-.975.975-.975h35.94c.557 0 .975.418.975.975v23.82a.952.952 0 01-.975.976.952.952 0 01-.975-.975V9.71H14.268v48.477S14.5 60 13.432 60z" fill="#000"/><path d="M13.433 56.239H8.975A.952.952 0 018 55.263V4.975C8 4.418 8.418 4 8.975 4h35.94c.557 0 .975.418.975.975v3.761a.952.952 0 01-.975.975H14.27v45.552c.139.558-.279.976-.836.976zm-3.483-1.95h2.508V8.735c0-.557.418-.975.975-.975h30.646v-1.95H9.95v48.477z" fill="#000"/><path d="M34.744 15.144h-6.687a.952.952 0 01-.975-.976c0-.557.418-.975.975-.975h6.687c.557 0 .975.418.975.976a.952.952 0 01-.975.975zM41.297 20.298H21.655a.952.952 0 01-.975-.975c0-.557.418-.975.975-.975h19.642c.557 0 .975.418.975.975a.952.952 0 01-.975.975zM41.297 25.314H21.655a.952.952 0 01-.975-.976c0-.557.418-.975.975-.975h19.642c.557 0 .975.418.975.975a.952.952 0 01-.975.976zM41.297 30.467H21.655a.952.952 0 01-.975-.975c0-.558.418-.975.975-.975h19.642c.557 0 .975.418.975.975a.952.952 0 01-.975.975zM30.708 35.621h-9.194a.952.952 0 01-.975-.975c0-.557.418-.975.975-.975h9.194c.557 0 .975.418.975.975a.952.952 0 01-.975.975zM29.037 40.776h-7.523a.952.952 0 01-.975-.975c0-.557.418-.975.975-.975h7.523c.557 0 .975.418.975.975a.952.952 0 01-.976.975zM44.778 59.861H40.32c-1.114 0-2.09-.975-2.09-2.09v-.139l-.139.14c-.836.836-2.229.836-2.925 0L32.1 54.707c-.836-.836-.836-2.229 0-2.925l.14-.14h-.14c-1.114 0-2.09-.975-2.09-2.09v-4.457c0-1.114.976-2.09 2.09-2.09h.14l-.14-.139c-.418-.418-.557-.975-.557-1.532s.279-1.114.557-1.532l3.065-3.065c.836-.836 2.229-.836 2.925 0l.14.14v-.14c0-1.114.975-2.09 2.09-2.09h4.457c1.114 0 2.09.976 2.09 2.09v.14l.139-.14c.836-.836 2.229-.836 2.925 0l3.065 3.065c.836.836.836 2.229 0 2.925l-.14.14h.14c1.114 0 2.09.975 2.09 2.089v4.458c0 1.114-.976 2.09-2.09 2.09h-.14l.14.138c.418.418.557.975.557 1.533 0 .557-.279 1.114-.557 1.532l-3.065 3.065c-.836.836-2.229.836-2.925 0l-.14-.14v.14c0 1.114-.975 2.09-2.09 2.09zm-5.712-5.432c.14 0 .279 0 .418.139.418.14.557.418.557.836v2.507a.3.3 0 00.28.279h4.457a.3.3 0 00.278-.279v-2.507c0-.418.279-.697.558-.836.418-.14.696 0 .975.14l1.671 1.67c.14.14.279.14.418 0l3.065-3.064.14-.14s0-.139-.14-.139l-1.672-1.671c-.278-.279-.278-.697-.139-.975.14-.418.418-.558.836-.558h2.507a.3.3 0 00.279-.278v-4.458a.3.3 0 00-.279-.278h-2.507c-.418 0-.697-.279-.836-.558-.14-.417 0-.696.14-.975l1.67-1.671c.14-.14.14-.279 0-.418l-3.064-3.065c-.139-.14-.278-.14-.418 0l-1.671 1.672c-.279.278-.697.278-.975.139-.418-.14-.558-.418-.558-.836v-2.507a.3.3 0 00-.278-.279H40.32a.3.3 0 00-.279.279v2.507c0 .418-.278.697-.557.836-.418.14-.696 0-.975-.14l-1.672-1.671c-.139-.14-.278-.14-.417 0l-3.065 3.065-.14.139s0 .14.14.14l1.672 1.67c.278.28.278.698.139.976-.14.418-.418.557-.836.557h-2.507a.3.3 0 00-.279.279v4.458a.3.3 0 00.279.278h2.507c.418 0 .697.279.836.557.14.418 0 .697-.14.975l-1.671 1.672c-.14.14-.14.279 0 .418l3.065 3.065c.139.139.278.139.417 0l1.672-1.672c.14-.279.418-.279.557-.279z" fill="#000"/><path d="M42.546 52.2a4.994 4.994 0 01-5.015-5.015 4.994 4.994 0 015.015-5.015 4.994 4.994 0 015.015 5.015 4.994 4.994 0 01-5.015 5.015zm0-8.22c-1.672 0-3.204 1.394-3.204 3.205 0 1.81 1.393 3.204 3.204 3.204 1.672 0 3.204-1.393 3.204-3.204 0-1.811-1.532-3.204-3.204-3.204z" fill="#000"/><path d="M44.778 59.861H40.32c-1.114 0-2.09-.975-2.09-2.09v-.139l-.139.14c-.836.836-2.229.836-2.925 0L32.1 54.707c-.836-.836-.836-2.229 0-2.925l.14-.14h-.14c-1.114 0-2.09-.975-2.09-2.09v-4.457c0-1.114.976-2.09 2.09-2.09h.14l-.14-.139c-.418-.418-.557-.975-.557-1.532s.279-1.114.557-1.532l3.065-3.065c.836-.836 2.229-.836 2.925 0l.14.14v-.14c0-1.114.975-2.09 2.09-2.09h4.457c1.114 0 2.09.976 2.09 2.09v.14l.139-.14c.836-.836 2.229-.836 2.925 0l3.065 3.065c.836.836.836 2.229 0 2.925l-.14.14h.14c1.114 0 2.09.975 2.09 2.089v4.458c0 1.114-.976 2.09-2.09 2.09h-.14l.14.138c.418.418.557.975.557 1.533 0 .557-.279 1.114-.557 1.532l-3.065 3.065c-.836.836-2.229.836-2.925 0l-.14-.14v.14c0 1.114-.975 2.09-2.09 2.09zm-5.712-5.432c.14 0 .279 0 .418.139.418.14.557.418.557.836v2.507a.3.3 0 00.28.279h4.457a.3.3 0 00.278-.279v-2.507c0-.418.279-.697.558-.836.418-.14.696 0 .975.14l1.671 1.67c.14.14.279.14.418 0l3.065-3.064.14-.14s0-.139-.14-.139l-1.672-1.671c-.278-.279-.278-.697-.139-.975.14-.418.418-.558.836-.558h2.507a.3.3 0 00.279-.278v-4.458a.3.3 0 00-.279-.278h-2.507c-.418 0-.697-.279-.836-.558-.14-.417 0-.696.14-.975l1.67-1.671c.14-.14.14-.279 0-.418l-3.064-3.065c-.139-.14-.278-.14-.418 0l-1.671 1.672c-.279.278-.697.278-.975.139-.418-.14-.558-.418-.558-.836v-2.507a.3.3 0 00-.278-.279H40.32a.3.3 0 00-.279.279v2.507c0 .418-.278.697-.557.836-.418.14-.696 0-.975-.14l-1.672-1.671c-.139-.14-.278-.14-.417 0l-3.065 3.065-.14.139s0 .14.14.14l1.672 1.67c.278.28.278.698.139.976-.14.418-.418.557-.836.557h-2.507a.3.3 0 00-.279.279v4.458a.3.3 0 00.279.278h2.507c.418 0 .697.279.836.557.14.418 0 .697-.14.975l-1.671 1.672c-.14.14-.14.279 0 .418l3.065 3.065c.139.139.278.139.417 0l1.672-1.672c.14-.279.418-.279.557-.279z" fill="#000"/><path d="M42.546 52.2a4.994 4.994 0 01-5.015-5.015 4.994 4.994 0 015.015-5.015 4.994 4.994 0 015.015 5.015 4.994 4.994 0 01-5.015 5.015zm0-8.22c-1.672 0-3.204 1.394-3.204 3.205 0 1.81 1.393 3.204 3.204 3.204 1.672 0 3.204-1.393 3.204-3.204 0-1.811-1.532-3.204-3.204-3.204zM24.716 60c-.696 0-1.393-.418-1.532-1.115-.557.279-1.393.14-1.95-.278l-1.95-1.95c-.558-.558-.558-1.254-.279-1.95-.697-.28-1.114-.837-1.114-1.533v-2.786c0-.697.418-1.393 1.114-1.533-.14-.278-.14-.417-.14-.696 0-.418.14-.836.558-1.114l1.95-1.95c.557-.558 1.254-.558 1.95-.28.28-.696.836-1.114 1.533-1.114h2.786c.557 0 .975.418.975.975a.952.952 0 01-.975.975h-2.508v1.254c0 .418-.278.697-.557.836-.278.14-.696 0-.975-.14l-.975-.974-1.672 1.671.975.975c.279.279.279.697.14.975-.14.418-.418.558-.836.558H19.98v2.368h1.254c.418 0 .696.278.836.557.139.418 0 .697-.14.975l-.975.975 1.672 1.672.975-.975c.279-.279.697-.279.975-.14.418.14.557.418.557.836v1.393c.418.14.697.418.697.975-.279.14-.697.558-1.114.558z" fill="#000"/><path d="M26.111 55.124a3.449 3.449 0 01-3.482-3.482 3.449 3.449 0 013.482-3.483 3.449 3.449 0 013.483 3.483c0 1.95-1.672 3.482-3.483 3.482zm0-5.015c-.835 0-1.671.697-1.671 1.672s.696 1.672 1.671 1.672c.976 0 1.672-.697 1.672-1.672s-.836-1.672-1.672-1.672z" fill="#000"/></symbol><symbol fill="none" viewBox="0 0 64 64" id="icon-advantage-3" xmlns="http://www.w3.org/2000/svg"><path d="M15.982 60c-.275 0-.55-.138-.687-.275-.412-.412-.274-.961 0-1.236l1.373-1.373c1.236-1.098 2.746-1.784 4.53-1.784H36.3c1.648 0 3.296-.55 4.668-1.51l13.73-9.336c.549-.412.96-.961.96-1.648 0-.686-.137-1.373-.686-1.785-.824-.823-1.922-.96-2.883-.274l-14.553 9.198c-.137.138-.275.138-.549.138H25.729a.938.938 0 01-.96-.961c0-.55.411-.961.96-.961h11.12l14.416-9.199c1.648-1.098 3.844-.824 5.217.55.824.823 1.373 2.059 1.236 3.294a4.335 4.335 0 01-1.785 3.02l-13.729 9.336c-1.648 1.099-3.707 1.785-5.766 1.785H21.336c-1.236 0-2.334.412-3.158 1.236l-1.373 1.373c-.274.411-.549.411-.823.411z" fill="#000"/><path d="M7.878 50.116c-.137 0-.412 0-.55-.138-.411-.274-.411-.96-.137-1.235 6.865-8.65 16.338-9.336 22.928-8.375 4.393.686 7.825 4.53 7.825 8.924 0 .55-.412.961-.96.961a.938.938 0 01-.962-.961c0-3.57-2.608-6.59-6.178-7.14-6.178-.823-14.964-.274-21.28 7.69a1.049 1.049 0 01-.686.274zM11.171 25.54c-1.098 0-2.197-.412-2.883-1.236-.824-.823-1.373-2.059-1.236-3.295a4.335 4.335 0 011.785-3.02l13.73-9.336c1.647-1.098 3.706-1.785 5.765-1.785h15.102c1.236 0 2.334-.411 3.158-1.235l1.373-1.373c.412-.412.96-.275 1.235 0 .412.412.275.961 0 1.236l-1.373 1.372c-1.235 1.099-2.745 1.785-4.53 1.785H28.195c-1.648 0-3.295.55-4.668 1.51L9.798 19.5c-.55.412-.961.961-.961 1.648 0 .686.137 1.373.687 1.784.823.824 1.922.961 2.883.275l14.552-9.336c.138-.137.275-.137.55-.137h11.395c.549 0 .96.412.96.961 0 .55-.411.961-.96.961h-11.12l-14.416 9.199c-.687.411-1.373.686-2.197.686z" fill="#000"/><path d="M38.766 23.892c-1.51 0-3.02-.137-4.394-.275-4.393-.686-7.825-4.53-7.825-8.924 0-.549.412-.96.96-.96.55 0 .962.411.962.96 0 3.57 2.608 6.59 6.178 7.14 6.178.823 14.965.274 21.28-7.689.275-.412.961-.412 1.236-.137.411.275.412.961.137 1.236-5.492 6.864-12.493 8.649-18.534 8.649zM14.878 41.054c-.137 0-.411 0-.549-.137l-.412-.275c-1.235-.823-1.647-2.334-1.235-3.844.412-1.373 1.785-2.334 3.295-2.334h2.196c.687 0 1.236-.412 1.51-1.098l.687-2.06c.412-1.372 1.785-2.333 3.295-2.333s2.746.96 3.295 2.334l.686 2.059c.275.686.824 1.098 1.51 1.098h2.197c1.236 0 2.334.55 2.883 1.648.687 1.098.687 2.334.138 3.432-.275.412-.824.55-1.236.412-.412-.275-.55-.824-.412-1.236.275-.412.275-1.098 0-1.51-.137-.275-.549-.686-1.373-.686h-2.196c-1.51 0-2.746-.961-3.295-2.334l-.687-2.06c-.274-.823-.96-1.098-1.51-1.098s-1.236.275-1.51 1.098l-.687 2.06c-.412 1.373-1.784 2.334-3.295 2.334h-2.196c-.824 0-1.373.549-1.51 1.098-.138.55-.138 1.236.549 1.785l.412.274c.411.275.549.824.137 1.236-.137 0-.412.137-.687.137zM47.83 38.17c-.55 0-1.236-.137-1.648-.55l-1.373-1.097c-.411-.275-.823-.275-1.235 0L42.2 37.62c-1.099.686-2.334.686-3.432 0-1.099-.687-1.51-2.06-1.099-3.295l.55-1.648c.137-.411 0-.96-.412-1.235l-1.373-1.098c-1.099-.687-1.51-2.06-1.099-3.295.412-1.236 1.51-2.06 2.746-2.06h1.785c.412 0 .686-.137.961-.549.274-.412.824-.55 1.236-.274.411.274.549.823.274 1.235-.549.824-1.51 1.373-2.471 1.373h-1.785c-.686 0-.96.55-.96.687s-.138.823.411 1.235l1.373 1.098c.96.687 1.373 2.06 1.098 3.295l-.549 1.648c-.274.686.275 1.098.412 1.236.137.137.686.411 1.236 0l1.372-1.099c.962-.686 2.334-.686 3.433 0l1.373 1.099c.549.411 1.098.137 1.235 0 .138-.138.55-.55.412-1.236l-.55-1.648c-.41-1.235 0-2.47 1.1-3.295l1.372-1.098c.55-.412.412-.961.412-1.235 0-.138-.275-.687-.961-.687h-1.785c-1.235 0-2.334-.824-2.746-2.06v-.137c-.137-.549.138-.96.55-1.098.549-.137.96.137 1.098.55v.136c.137.412.55.687.96.687h1.786c1.235 0 2.334.824 2.745 2.06.412 1.235 0 2.47-1.098 3.294l-1.373 1.099c-.412.274-.549.686-.412 1.235l.55 1.648c.411 1.235 0 2.47-1.099 3.295-.412.549-1.098.686-1.647.686zM24.903 27.187c-1.647 0-3.02-1.373-3.02-3.02 0-1.648 1.373-3.02 3.02-3.02 1.648 0 3.02 1.372 3.02 3.02 0 1.647-1.235 3.02-3.02 3.02zm0-4.256a1.23 1.23 0 00-1.235 1.236c0 .686.549 1.235 1.235 1.235a1.23 1.23 0 001.236-1.235 1.23 1.23 0 00-1.236-1.236zM10.902 34.464c-1.922 0-3.57-1.647-3.57-3.57 0-1.921 1.647-3.569 3.57-3.569 1.922 0 3.57 1.648 3.57 3.57 0 2.06-1.648 3.57-3.57 3.57zm0-5.217c-.961 0-1.648.824-1.648 1.648 0 .96.824 1.647 1.648 1.647.96 0 1.647-.824 1.647-1.647 0-.824-.686-1.648-1.647-1.648z" fill="#000"/></symbol><symbol fill="none" viewBox="0 0 492 574" id="icon-arc" xmlns="http://www.w3.org/2000/svg"><circle cx="205" cy="287" r="286" stroke="#FEC80B" stroke-width="2"/></symbol><symbol fill="none" viewBox="0 0 30 28" id="icon-basket" xmlns="http://www.w3.org/2000/svg"><path fill-rule="evenodd" clip-rule="evenodd" d="M.55 1.5c0-.39.31-.7.7-.7h4.96a.7.7 0 01.69.56l1.13 5.69h20.72a.7.7 0 01.69.83l-1.99 10.49a3.2 3.2 0 01-3.17 2.58H12.02a3.17 3.17 0 01-3.17-2.58L6.77 7.92a.7.7 0 01-.01-.07L5.64 2.2H1.25a.7.7 0 01-.7-.7zM8.3 8.45l1.92 9.65A1.8 1.8 0 0012 19.55h12.3a1.77 1.77 0 001.78-1.45l1.83-9.65H8.3zM19 16.5a.5.5 0 11-1 0 .5.5 0 011 0zm-6.58 11.25a2.5 2.5 0 100-5 2.5 2.5 0 000 5zm11.17 0a2.5 2.5 0 100-5 2.5 2.5 0 000 5z" fill="#000"/></symbol><symbol fill="none" viewBox="0 0 177 530" id="icon-dots" xmlns="http://www.w3.org/2000/svg"><circle cx="11.75" cy="11.75" r="10.25" fill="#FEC80B" stroke="#FEC80B" stroke-width="3"/><circle cx="13.75" cy="517.75" r="10.25" fill="#fff" stroke="#FEC80B" stroke-width="3"/><circle cx="164.75" cy="267.75" r="10.25" fill="#fff" stroke="#FEC80B" stroke-width="3"/><circle cx="128.75" cy="127.75" r="10.25" fill="#fff" stroke="#FEC80B" stroke-width="3"/><circle cx="125.75" cy="412.75" r="10.25" fill="#fff" stroke="#FEC80B" stroke-width="3"/></symbol><symbol viewBox="0 0 10.5 18" id="icon-facebook" xmlns="http://www.w3.org/2000/svg"><path d="M11.25 0H8.39C7.12 0 5.9.47 5 1.32c-.9.84-1.4 1.99-1.4 3.18v2.7H.75v3.6h2.86V18h3.82v-7.2h2.87l.95-3.6H7.43V4.5c0-.24.1-.47.28-.64a.98.98 0 01.68-.26h2.86V0z"/></symbol><symbol fill="none" viewBox="0 0 30 28" id="icon-fav" xmlns="http://www.w3.org/2000/svg"><path d="M17.03 3.16h0a6.86 6.86 0 0110.15 0h0a7.97 7.97 0 010 10.77h0l-1.52 1.6L15 26.73 4.34 15.53l-1.52-1.6A7.82 7.82 0 01.7 8.55c0-2.03.77-3.96 2.12-5.39A7 7 0 017.9.96a7 7 0 015.07 2.2l1.52 1.6a.7.7 0 001.02 0l1.52-1.6z" stroke="#000" stroke-width="1.4" stroke-linecap="round" stroke-linejoin="round"/></symbol><symbol viewBox="0 0 18.58 11.88" id="icon-google" xmlns="http://www.w3.org/2000/svg"><g clip-path="url(#ia)"><path d="M16.25 8.13V5.87h-1.13v2.25h-2.24v1.13h2.24v2.25h1.13V9.25h2.25V8.12h-2.25zM6 8.4v2.2h3.11A3.3 3.3 0 116 6.2c.79 0 1.55.28 2.14.8l1.44-1.66A5.5 5.5 0 1011.5 9.5V8.4H6z"/></g><defs><clipPath id="ia"><path transform="translate(.5)" d="M0 0h18v18H0z"/></clipPath></defs></symbol><symbol viewBox="0 0 17.23 17.22" id="icon-instagram" xmlns="http://www.w3.org/2000/svg"><path d="M13.3 3.9a.8.8 0 100 1.6.8.8 0 000-1.6z"/><path fill-rule="evenodd" clip-rule="evenodd" d="M9.6 5.08a3.92 3.92 0 10-1.14 7.77A3.92 3.92 0 009.6 5.08zM7.97 6.9a2.32 2.32 0 112.14 4.13A2.32 2.32 0 017.96 6.9z"/><path fill-rule="evenodd" clip-rule="evenodd" d="M.39 5.1c0-2.6 2.1-4.71 4.7-4.71h7.81c2.6 0 4.71 2.1 4.71 4.7v7.82c0 .94-.28 1.83-.76 2.57a.43.43 0 01-.24.33 4.7 4.7 0 01-3.7 1.8H5.08a4.7 4.7 0 01-4.7-4.7V5.09zm4.7-3.11A3.1 3.1 0 002 5.09v7.82a3.1 3.1 0 003.1 3.1h7.81a3.1 3.1 0 003.11-3.1V5.09a3.1 3.1 0 00-3.1-3.1H5.08z"/></symbol><symbol fill="none" viewBox="0 0 28 28" id="icon-search" xmlns="http://www.w3.org/2000/svg"><path fill-rule="evenodd" clip-rule="evenodd" d="M11.27.25A11.14 11.14 0 00.25 11.51c0 6.22 4.94 11.26 11.02 11.26 2.65 0 5.07-.95 6.97-2.54l7.58 7.2c.47.45 1.2.42 1.62-.05a1.2 1.2 0 00-.06-1.66l-7.52-7.15a11.36 11.36 0 002.44-7.06C22.3 5.29 17.36.25 11.27.25zM2.54 11.51c0-4.93 3.91-8.92 8.73-8.92 4.83 0 8.74 4 8.74 8.92s-3.91 8.92-8.74 8.92c-4.82 0-8.73-4-8.73-8.92z" fill="#000"/></symbol><symbol fill="none" viewBox="0 0 64 64" id="icon-spare-parts" xmlns="http://www.w3.org/2000/svg"><path d="M34.643 52.2H29.21c-1.114 0-1.95-.836-1.95-1.95v-2.926c-.976-.279-1.95-.697-2.926-1.114l-2.09 2.09c-.696.696-1.95.696-2.646 0l-3.9-3.901c-.418-.418-.558-.836-.558-1.394 0-.557.14-.975.557-1.393l2.09-2.09c-.418-.974-.836-1.81-1.114-2.924h-2.926c-1.114 0-1.95-.836-1.95-1.95v-5.434c0-1.114.836-1.95 1.95-1.95h2.925c.28-.975.697-1.95 1.115-2.925l-2.09-2.09c-.417-.418-.557-.836-.557-1.393s.14-.975.557-1.393l3.9-3.9c.697-.697 1.951-.697 2.648 0l2.09 2.09c.974-.419 1.81-.837 2.925-1.115v-2.926c0-1.114.835-1.95 1.95-1.95h5.433c1.114 0 1.95.836 1.95 1.95v2.926c.975.278 1.95.696 2.925 1.114l2.09-2.09c.697-.696 1.95-.696 2.647 0l3.9 3.901c.418.418.557.836.557 1.393s-.139.975-.557 1.393l-2.09 2.09c.419.975.837 1.81 1.115 2.925h2.925c1.115 0 1.95.836 1.95 1.95v5.433c0 1.115-.835 1.95-1.95 1.95H47.18c-.279.976-.696 1.95-1.114 2.926l2.09 2.09c.417.417.556.835.556 1.392 0 .558-.139.976-.557 1.394l-3.9 3.9c-.697.697-1.95.697-2.647 0l-2.09-2.09c-.975.418-1.81.836-2.925 1.115v2.925c-.14.975-.975 1.95-1.95 1.95zm-10.448-8.22c.14 0 .279 0 .418.14 1.114.697 2.368 1.254 3.761 1.532.418.14.697.418.697.836v3.622h5.433V46.35c0-.418.278-.836.696-.836 1.254-.279 2.507-.836 3.761-1.532.418-.279.836-.14 1.115.139l2.646 2.647 3.9-3.9-2.646-2.648c-.279-.278-.418-.835-.14-1.114.697-1.114 1.255-2.368 1.533-3.761.14-.418.418-.697.836-.697h3.622v-5.433h-3.761c-.418 0-.836-.278-.836-.696-.279-1.254-.836-2.508-1.532-3.761-.28-.418-.14-.836.139-1.115l2.647-2.646-3.9-3.901-2.648 2.647c-.278.278-.836.418-1.114.14-1.115-.698-2.368-1.255-3.761-1.533-.418-.14-.697-.418-.697-.836V13.89h-5.433v3.761c0 .418-.278.836-.696.836-1.254.279-2.508.836-3.761 1.532-.418.279-.836.14-1.115-.139l-2.647-2.647-3.9 3.9 2.647 2.648c.278.278.418.835.139 1.114-.697 1.114-1.254 2.368-1.532 3.761-.14.418-.418.697-.836.697h-3.622v5.433h3.761c.418 0 .836.278.836.696.279 1.254.836 2.508 1.532 3.761.279.418.14.836-.14 1.115l-2.646 2.646 3.9 3.901 2.647-2.647c.279-.139.418-.278.697-.278z" fill="#000"/><path d="M31.857 43.98a11.83 11.83 0 01-11.841-11.84c0-6.548 5.293-11.841 11.84-11.841a11.83 11.83 0 0111.841 11.84c0 6.409-5.293 11.841-11.84 11.841zm0-22.01A9.988 9.988 0 0021.827 32a9.988 9.988 0 0010.03 10.03A9.988 9.988 0 0041.886 32c0-5.433-4.458-10.03-10.03-10.03z" fill="#000"/><path d="M31.856 38.13c-3.343 0-6.13-2.786-6.13-6.13 0-3.343 2.787-6.129 6.13-6.129s6.13 2.786 6.13 6.13c0 3.343-2.787 6.129-6.13 6.129zm0-10.309c-2.368 0-4.18 1.95-4.18 4.18 0 2.368 1.951 4.179 4.18 4.179 2.368 0 4.18-1.95 4.18-4.18.138-2.228-1.812-4.179-4.18-4.179zM31.86 60C16.399 60 4 47.463 4 32.14c0-.558.418-.976.975-.976.557 0 .975.418.975.975 0 14.348 11.702 26.05 26.05 26.05.557 0 .975.418.975.975-.139.418-.557.836-1.114.836zM58.88 32.975a.952.952 0 01-.976-.975c0-14.348-11.702-26.05-26.05-26.05a.952.952 0 01-.975-.975c0-.557.418-.975.975-.975 15.463 0 27.86 12.537 27.86 27.86.14.697-.278 1.115-.835 1.115z" fill="#000"/></symbol><symbol fill="none" viewBox="0 0 24 24" id="icon-telephone" xmlns="http://www.w3.org/2000/svg"><path d="M24 17.97v3.61A2.4 2.4 0 0121.37 24a23.91 23.91 0 01-10.42-3.7 23.5 23.5 0 01-7.24-7.22A23.8 23.8 0 01.01 2.63 2.4 2.4 0 012.41 0h3.62a2.42 2.42 0 012.41 2.07c.16 1.16.44 2.3.85 3.39A2.4 2.4 0 018.75 8L7.2 9.53a19.29 19.29 0 007.24 7.22L16 15.22a2.41 2.41 0 012.54-.54c1.1.4 2.24.7 3.4.84A2.41 2.41 0 0124 17.97z" fill="#000"/></symbol><symbol fill="none" viewBox="0 0 64 64" id="icon-time" xmlns="http://www.w3.org/2000/svg"><path d="M36.542 60a.971.971 0 01-.995-.995v-5.97c0-.569.426-.995.995-.995.568 0 .995.426.995.995v6.112c-.142.426-.569.852-.995.852zM51.608 60a.972.972 0 01-.995-.995v-5.97c0-.569.427-.995.995-.995.569 0 .995.426.995.995v6.112c-.142.426-.568.852-.995.852zM44.214 41.522c-1.848 0-3.553-1.137-4.69-3.411-.853-1.421-1.137-3.27-1.137-5.117v-1.563c0-.143 0-.285.142-.427.568-.995 3.127-2.7 5.827-2.7 3.127 0 6.112 1.847 6.112 3.269v1.421c0 1.848-.427 3.553-1.137 5.117-1.28 2.274-2.985 3.411-5.117 3.411zm-3.98-9.807v1.279c0 1.563.285 2.985.995 4.122.853 1.563 1.99 2.416 3.127 2.416h.142c1.28 0 2.275-.853 3.127-2.416.569-1.137.995-2.7.995-4.122v-1.28c-.426-.425-1.99-1.563-4.122-1.563-2.132 0-3.837 1.137-4.264 1.564z" fill="#000"/><path d="M57.009 60h-26.01a.972.972 0 01-.995-.994v-7.96a7.946 7.946 0 017.96-7.96h11.938a7.946 7.946 0 017.96 7.96v7.96c.142.568-.285.995-.853.995zm-25.015-1.847h24.162v-6.965c0-3.41-2.7-6.111-6.111-6.111h-11.94a6.066 6.066 0 00-6.111 6.111v6.965z" fill="#000"/><path d="M31 60C15.508 60 3 47.492 3 32S15.508 4 31 4c.569 0 .995.426.995.995A.972.972 0 0131 5.99c-14.355 0-26.152 11.655-26.152 26.152 0 14.355 11.655 26.152 26.152 26.152.569 0 .995.427.995.995 0 .285-.427.711-.995.711zM56.304 42.66h-.284c-.427-.142-.711-.71-.569-1.279.142-.426.284-.853.426-1.421.142-.569.711-.711 1.137-.569.569.142.711.71.569 1.137-.142.569-.284.995-.569 1.422 0 .426-.426.71-.71.71zM57.864 35.553c-.568 0-.995-.569-.995-.995.142-.853.142-1.706.142-2.416v-.284c0-.569.427-.995.995-.995.569 0 .995.426.995.995v.426c0 .853 0 1.706-.142 2.7 0 .285-.426.569-.995.569zm-.568-8.67c-.427 0-.853-.284-.995-.71-.143-.853-.427-1.848-.711-2.701-.142-.427.142-.995.569-1.28.568-.142.995.143 1.279.57.284.994.568 1.847.852 2.842.143.568-.142.995-.71 1.137-.142.142-.142.142-.284.142zm-3.27-7.96c-.284 0-.568-.141-.852-.426-.427-.853-.995-1.563-1.564-2.274-.284-.426-.284-.995.142-1.28.427-.283.995-.283 1.28.143.568.853 1.137 1.563 1.705 2.416.285.427.142.995-.284 1.28 0 .142-.284.142-.426.142zm-5.543-6.537c-.284 0-.426-.143-.568-.285-.71-.568-1.422-1.137-2.274-1.705-.427-.285-.569-.853-.285-1.28.285-.426.853-.568 1.28-.284.852.569 1.563 1.137 2.416 1.848.426.284.426.995.142 1.28-.284.283-.569.425-.71.425zM40.95 7.837h-.284c-.853-.284-1.705-.71-2.7-.852-.569-.143-.853-.711-.711-1.138.142-.568.71-.852 1.137-.71.995.284 1.848.568 2.843.995.426.142.71.71.568 1.279 0 .284-.426.426-.853.426z" fill="#000"/><path d="M32.562 5.99H31a.972.972 0 01-.995-.995c0-.569.426-.995.995-.995h1.563c.569 0 .995.426.853.995 0 .568-.426.995-.853.995zM30.999 13.807a.972.972 0 01-.995-.995V9.685c0-.568.426-.995.995-.995.568 0 .995.427.995.995v3.127a.972.972 0 01-.995.995zM44.507 19.491c-.284 0-.426-.142-.71-.284-.427-.426-.427-.995 0-1.28l2.274-2.273c.426-.427.994-.427 1.279 0 .426.426.426.995 0 1.279l-2.275 2.274c0 .142-.284.284-.568.284zM15.222 48.773c-.284 0-.426-.143-.71-.285-.427-.426-.427-.995 0-1.279l2.273-2.274c.427-.426.995-.426 1.28 0 .426.426.426.995 0 1.28l-2.275 2.273c-.142.285-.284.285-.568.285zM11.813 32.995H8.686A.971.971 0 017.691 32c0-.569.427-.995.995-.995h3.127c.569 0 .995.426.995.995a.972.972 0 01-.995.995zM17.496 19.491c-.284 0-.426-.142-.71-.284l-2.275-2.274c-.426-.426-.426-.995 0-1.28.427-.426.995-.426 1.28 0l2.273 2.275c.427.426.427.995 0 1.28-.142.141-.426.283-.568.283z" fill="#000"/><path d="M31.001 55.31c-6.254 0-12.081-2.416-16.487-6.823C10.108 44.081 7.69 38.254 7.69 32c0-6.254 2.417-12.081 6.823-16.487C18.92 11.107 24.747 8.69 31 8.69c6.254 0 12.081 2.417 16.487 6.823 6.823 6.822 8.67 17.198 4.833 26.01-.284.426-.71.71-1.28.426-.426-.284-.71-.71-.426-1.279 3.553-8.101 1.848-17.624-4.406-23.878a21.299 21.299 0 00-15.066-6.254 21.299 21.299 0 00-15.066 6.254 21.299 21.299 0 00-6.254 15.066 21.299 21.299 0 006.254 15.066 21.299 21.299 0 0015.066 6.254c.569 0 .995.426.995.995-.142.71-.568 1.137-1.137 1.137z" fill="#000"/><path d="M31 35.695c-.995 0-1.848-.427-2.558-1.138-.71-.71-1.137-1.563-1.137-2.558 0-.995.426-1.848 1.137-2.558.71-.71 1.563-1.137 2.558-1.137.995 0 1.848.426 2.559 1.137.71.71 1.137 1.563 1.137 2.558 0 .995-.427 1.848-1.137 2.558-.711.853-1.564 1.138-2.559 1.138zm0-5.401c-.426 0-.853.142-1.28.568-.283.284-.568.71-.568 1.28 0 .426.143.852.569 1.278.71.711 1.848.711 2.558 0 .285-.284.569-.71.569-1.279 0-.426-.142-.852-.569-1.279-.426-.426-.853-.568-1.279-.568z" fill="#000"/><path d="M29.867 30.578c-.426 0-.71-.284-.853-.568L24.75 19.634c-.142-.426 0-.995.569-1.279.426-.142.995 0 1.28.569l4.263 10.375c.142.427 0 .995-.568 1.28h-.427zM30.999 43.228a.972.972 0 01-.995-.995v-7.39c0-.569.426-.995.995-.995.568 0 .995.426.995.995v7.39a.972.972 0 01-.995.995zM59.426 60H11.81a.972.972 0 01-.995-.995c0-.569.427-.995.995-.995h47.615c.568 0 .994.426.994.995a.972.972 0 01-.994.995z" fill="#000"/></symbol><symbol viewBox="0 0 19.64 17.86" id="icon-twitter" xmlns="http://www.w3.org/2000/svg"><path d="M18 1.5c-.78.57-1.65 1-2.57 1.29a3.65 3.65 0 00-4.07-1.04A3.8 3.8 0 009 5.3v.83a8.57 8.57 0 01-7.36-3.79s-3.28 7.53 4.09 10.87A9.38 9.38 0 010 14.88c7.36 4.18 16.36 0 16.36-9.61 0-.23-.02-.46-.06-.7A6.49 6.49 0 0018 1.52z"/></symbol><symbol viewBox="0 0 18.02 12.75" id="icon-youtube" xmlns="http://www.w3.org/2000/svg"><path fill-rule="evenodd" clip-rule="evenodd" d="M17.55 1.2c.28.3.48.65.57 1.05.26 1.45.39 2.92.38 4.4 0 1.44-.12 2.9-.38 4.32a2.3 2.3 0 01-1.58 1.65C15.13 13 9.5 13 9.5 13s-5.63 0-7.04-.38a2.27 2.27 0 01-1.58-1.58 24.1 24.1 0 01-.38-4.4c0-1.46.12-2.92.38-4.36A2.3 2.3 0 012.46.63C3.87.25 9.5.25 9.5.25s5.63 0 7.04.35c.38.1.73.32 1 .6zM12.1 6.67L7.8 9.1V4.2l4.31 2.45z"/></symbol></svg>