<svg width="64" height="64" viewBox="0 0 64 64" fill="none" xmlns="http://www.w3.org/2000/svg">
<path d="M36.5418 59.9994C35.9732 59.9994 35.5469 59.573 35.5469 59.0045V53.035C35.5469 52.4664 35.9732 52.04 36.5418 52.04C37.1103 52.04 37.5367 52.4664 37.5367 53.035V59.1466C37.3946 59.573 36.9682 59.9994 36.5418 59.9994Z" fill="black"/>
<path d="M51.6082 59.9994C51.0397 59.9994 50.6133 59.573 50.6133 59.0045V53.035C50.6133 52.4664 51.0397 52.04 51.6082 52.04C52.1768 52.04 52.6032 52.4664 52.6032 53.035V59.1466C52.461 59.573 52.0346 59.9994 51.6082 59.9994Z" fill="black"/>
<path d="M44.2141 41.522C42.3664 41.522 40.6608 40.3849 39.5238 38.1108C38.671 36.6895 38.3867 34.8418 38.3867 32.994V31.4306C38.3867 31.2885 38.3867 31.1463 38.5288 31.0042C39.0973 30.0093 41.6557 28.3037 44.3562 28.3037C47.4831 28.3037 50.4679 30.1514 50.4679 31.5727V32.994C50.4679 34.8418 50.0415 36.5474 49.3309 38.1108C48.0517 40.3849 46.3461 41.522 44.2141 41.522ZM40.2344 31.7149V32.994C40.2344 34.5575 40.5187 35.9788 41.2294 37.1159C42.0822 38.6793 43.2192 39.5321 44.3562 39.5321C44.3562 39.5321 44.3562 39.5321 44.4984 39.5321C45.7776 39.5321 46.7725 38.6793 47.6253 37.1159C48.1938 35.9788 48.6202 34.4154 48.6202 32.994V31.7149C48.1938 31.2885 46.6304 30.1514 44.4984 30.1514C42.3664 30.1514 40.6608 31.2885 40.2344 31.7149Z" fill="black"/>
<path d="M57.009 60.0006H30.9988C30.4303 60.0006 30.0039 59.5742 30.0039 59.0057V51.0463C30.0039 46.6402 33.5572 43.0869 37.9633 43.0869H49.9024C54.3085 43.0869 57.8618 46.6402 57.8618 51.0463V59.0057C58.0039 59.5742 57.5775 60.0006 57.009 60.0006ZM31.9938 58.1529H56.1562V51.1884C56.1562 47.7773 53.4557 45.0768 50.0445 45.0768H38.1054C34.6943 45.0768 31.9938 47.7773 31.9938 51.1884V58.1529Z" fill="black"/>
<path d="M31 60C15.5076 60 3 47.4924 3 32C3 16.5076 15.5076 4 31 4C31.5685 4 31.995 4.42639 31.995 4.99492C31.995 5.56345 31.5685 5.98985 31 5.98985C16.6447 5.98985 4.84774 17.6447 4.84774 32.1421C4.84774 46.4975 16.5026 58.2944 31 58.2944C31.5685 58.2944 31.995 58.7208 31.995 59.2893C31.995 59.5736 31.5685 60 31 60Z" fill="black"/>
<path d="M56.3038 42.6601C56.1617 42.6601 56.0196 42.6601 56.0196 42.6601C55.5932 42.518 55.3089 41.9495 55.451 41.381C55.5932 40.9546 55.7353 40.5282 55.8774 39.9596C56.0195 39.3911 56.5881 39.249 57.0145 39.3911C57.583 39.5332 57.7251 40.1018 57.583 40.5282C57.4409 41.0967 57.2987 41.5231 57.0145 41.9495C57.0145 42.3759 56.5881 42.6601 56.3038 42.6601Z" fill="black"/>
<path d="M57.8641 35.553C57.2956 35.553 56.8692 34.9845 56.8692 34.5581C57.0113 33.7053 57.0113 32.8525 57.0113 32.1419V31.8576C57.0113 31.2891 57.4377 30.8627 58.0063 30.8627C58.5748 30.8627 59.0012 31.2891 59.0012 31.8576V32.284C59.0012 33.1368 59.0012 33.9896 58.8591 34.9845C58.8591 35.2688 58.4326 35.553 57.8641 35.553ZM57.2956 26.883C56.8692 26.883 56.4428 26.5987 56.3007 26.1723C56.1585 25.3196 55.8743 24.3246 55.59 23.4718C55.4479 23.0454 55.7322 22.4769 56.1586 22.1926C56.7271 22.0505 57.1535 22.3348 57.4377 22.7612C57.722 23.7561 58.0063 24.6089 58.2905 25.6038C58.4327 26.1723 58.1484 26.5987 57.5799 26.7409C57.4377 26.883 57.4377 26.883 57.2956 26.883ZM54.0266 18.9236C53.7423 18.9236 53.458 18.7815 53.1738 18.4972C52.7474 17.6444 52.1788 16.9338 51.6103 16.2231C51.326 15.7967 51.3261 15.2282 51.7525 14.9439C52.1788 14.6596 52.7474 14.6596 53.0316 15.086C53.6002 15.9388 54.1687 16.6495 54.7372 17.5023C55.0215 17.9287 54.8793 18.4972 54.453 18.7815C54.453 18.9236 54.1687 18.9236 54.0266 18.9236ZM48.4834 12.3855C48.1991 12.3855 48.057 12.2434 47.9149 12.1013C47.2042 11.5327 46.4935 10.9642 45.6408 10.3957C45.2144 10.1114 45.0722 9.54289 45.3565 9.1165C45.6408 8.6901 46.2093 8.54797 46.6357 8.83224C47.4885 9.40076 48.1992 9.96928 49.052 10.6799C49.4783 10.9642 49.4783 11.6749 49.194 11.9591C48.9098 12.2434 48.6255 12.3855 48.4834 12.3855ZM40.9504 7.8373C40.8083 7.8373 40.6661 7.8373 40.6661 7.8373C39.8133 7.55304 38.9606 7.12665 37.9656 6.98452C37.3971 6.84238 37.1128 6.27386 37.255 5.84747C37.3971 5.27894 37.9657 4.99467 38.3921 5.13681C39.387 5.42107 40.2398 5.70533 41.2347 6.13173C41.6611 6.27386 41.9453 6.84239 41.8032 7.41092C41.8032 7.69518 41.3768 7.8373 40.9504 7.8373Z" fill="black"/>
<path d="M32.5623 5.98985C31.9938 5.98985 31.5674 5.98985 30.9988 5.98985C30.4303 5.98985 30.0039 5.56345 30.0039 4.99492C30.0039 4.42639 30.4303 4 30.9988 4C31.5674 4 31.9938 4 32.5623 4C33.1308 4 33.5572 4.42639 33.4151 4.99492C33.4151 5.56345 32.9887 5.98985 32.5623 5.98985Z" fill="black"/>
<path d="M30.9988 13.8072C30.4303 13.8072 30.0039 13.3808 30.0039 12.8122V9.68535C30.0039 9.11682 30.4303 8.69043 30.9988 8.69043C31.5674 8.69043 31.9938 9.11682 31.9938 9.68535V12.8122C31.9938 13.3808 31.5674 13.8072 30.9988 13.8072Z" fill="black"/>
<path d="M44.507 19.4913C44.2228 19.4913 44.0806 19.3492 43.7964 19.2071C43.37 18.7807 43.37 18.2122 43.7964 17.9279L46.0705 15.6538C46.4969 15.2274 47.0654 15.2274 47.3497 15.6538C47.7761 16.0802 47.7761 16.6487 47.3497 16.933L45.0755 19.2071C45.0755 19.3492 44.7913 19.4913 44.507 19.4913Z" fill="black"/>
<path d="M15.2219 48.7726C14.9376 48.7726 14.7955 48.6305 14.5112 48.4883C14.0848 48.0619 14.0848 47.4934 14.5112 47.2091L16.7853 44.935C17.2117 44.5086 17.7802 44.5086 18.0645 44.935C18.4909 45.3614 18.4909 45.9299 18.0645 46.2142L15.7904 48.4883C15.6483 48.7726 15.5061 48.7726 15.2219 48.7726Z" fill="black"/>
<path d="M11.8132 32.9947H8.6863C8.11778 32.9947 7.69141 32.5683 7.69141 31.9998C7.69141 31.4313 8.11778 31.0049 8.6863 31.0049H11.8132C12.3818 31.0049 12.8082 31.4313 12.8082 31.9998C12.8082 32.5683 12.3818 32.9947 11.8132 32.9947Z" fill="black"/>
<path d="M17.496 19.4913C17.2117 19.4913 17.0696 19.3492 16.7853 19.2071L14.5112 16.933C14.0848 16.5066 14.0848 15.938 14.5112 15.6538C14.9376 15.2274 15.5061 15.2274 15.7904 15.6538L18.0645 17.9279C18.4909 18.3543 18.4909 18.9228 18.0645 19.2071C17.9224 19.3492 17.6381 19.4913 17.496 19.4913Z" fill="black"/>
<path d="M31.001 55.3097C24.7472 55.3097 18.9198 52.8935 14.5137 48.4874C10.1076 44.0813 7.69141 38.2539 7.69141 32.0001C7.69141 25.7463 10.1076 19.9189 14.5137 15.5128C18.9198 11.1067 24.7472 8.69043 31.001 8.69043C37.2549 8.69043 43.0823 11.1067 47.4884 15.5128C54.3107 22.3351 56.1584 32.7107 52.3208 41.5229C52.0366 41.9493 51.6102 42.2336 51.0417 41.9493C50.6153 41.665 50.331 41.2387 50.6152 40.6701C54.1685 32.5686 52.463 23.0458 46.2092 16.7919C42.2295 12.8123 36.8285 10.5381 31.1432 10.5381C25.4579 10.5381 20.0569 12.8123 16.0772 16.7919C12.0975 20.7716 9.82339 26.1727 9.82339 31.8579C9.82339 37.5432 12.0975 42.9442 16.0772 46.9239C20.0569 50.9036 25.4579 53.1777 31.1432 53.1777C31.7117 53.1777 32.1381 53.6041 32.1381 54.1727C31.996 54.8833 31.5696 55.3097 31.001 55.3097Z" fill="black"/>
<path d="M31.0001 35.6946C30.0052 35.6946 29.1524 35.2682 28.4418 34.5575C27.7311 33.8468 27.3047 32.9941 27.3047 31.9991C27.3047 31.0042 27.7311 30.1514 28.4418 29.4407C29.1524 28.7301 30.0052 28.3037 31.0001 28.3037C31.9951 28.3037 32.8478 28.7301 33.5585 29.4407C34.2691 30.1514 34.6956 31.0042 34.6956 31.9991C34.6956 32.9941 34.2691 33.8468 33.5585 34.5575C32.8478 35.4103 31.9951 35.6946 31.0001 35.6946ZM31.0001 30.2936C30.5737 30.2936 30.1473 30.4357 29.7209 30.8621C29.4367 31.1463 29.1524 31.5727 29.1524 32.1413C29.1524 32.5677 29.2946 32.9941 29.7209 33.4204C30.4316 34.1311 31.5686 34.1311 32.2793 33.4204C32.5636 33.1362 32.8478 32.7098 32.8478 32.1413C32.8478 31.7149 32.7057 31.2885 32.2793 30.8621C31.8529 30.4357 31.4265 30.2936 31.0001 30.2936Z" fill="black"/>
<path d="M29.8672 30.5783C29.4408 30.5783 29.1566 30.2941 29.0144 30.0098L24.7505 19.6342C24.6084 19.2078 24.7505 18.6392 25.319 18.355C25.7454 18.2128 26.3139 18.355 26.5982 18.9235L30.8621 29.2991C31.0043 29.7255 30.8622 30.2941 30.2936 30.5783C30.0094 30.5783 30.0094 30.5783 29.8672 30.5783Z" fill="black"/>
<path d="M30.9988 43.2284C30.4303 43.2284 30.0039 42.802 30.0039 42.2334V34.8426C30.0039 34.274 30.4303 33.8477 30.9988 33.8477C31.5674 33.8477 31.9938 34.274 31.9938 34.8426V42.2334C31.9938 42.802 31.5674 43.2284 30.9988 43.2284Z" fill="black"/>
<path d="M59.4256 59.9996H11.8113C11.2428 59.9996 10.8164 59.5732 10.8164 59.0047C10.8164 58.4362 11.2428 58.0098 11.8113 58.0098H59.4256C59.9941 58.0098 60.4205 58.4362 60.4205 59.0047C60.4205 59.5732 59.9941 59.9996 59.4256 59.9996Z" fill="black"/>
</svg>
