<svg width="159" height="44" fill="none" xmlns="http://www.w3.org/2000/svg"><path d="M55.25 25.34v6.06h-4.3V13.56h7.12a8.2 8.2 0 0 1 3.62.76 5.58 5.58 0 0 1 2.43 2.14c.58.92.87 1.97.87 3.15 0 1.74-.62 3.13-1.87 4.18-1.24 1.04-2.95 1.55-5.12 1.55h-2.75Zm0-3.32h2.82c.83 0 1.47-.2 1.9-.62.44-.42.66-1 .66-1.76 0-.84-.22-1.5-.67-2a2.39 2.39 0 0 0-1.84-.76h-2.87v5.14ZM73.84 21.3v.01l2.96-7.75h4.53l-6 14.15a7.44 7.44 0 0 1-2.19 3.03c-.8.58-1.73.88-2.81.91h-.87l-.66-.02-.08-3.33c.1.03.39.05.86.05.65 0 1.14-.11 1.47-.33.33-.23.6-.67.8-1.32l.22-.58-6.45-12.56h4.57l3.65 7.74ZM96.56 25.36a6.07 6.07 0 0 1-3.59 5.5c-1.1.52-2.36.78-3.78.78-2.35 0-4.2-.76-5.54-2.29-1.35-1.53-2.02-3.68-2.02-6.47V22c0-1.75.3-3.28.9-4.58a6.91 6.91 0 0 1 6.6-4.12c2.17 0 3.91.57 5.23 1.72a6.73 6.73 0 0 1 2.24 4.7H92.3c-.03-1.09-.3-1.87-.82-2.34-.52-.47-1.3-.71-2.35-.71-1.07 0-1.86.4-2.36 1.2-.5.8-.75 2.08-.78 3.84v1.26c0 1.9.24 3.26.71 4.08.48.81 1.3 1.22 2.48 1.22.98 0 1.74-.23 2.26-.7.53-.46.8-1.2.84-2.21h4.27ZM111.86 16.88h-5.36V31.4h-4.3V16.88h-5.26v-3.32h14.92v3.32ZM117.6 25.34v6.06h-4.3V13.56h7.12a8.2 8.2 0 0 1 3.62.76 5.57 5.57 0 0 1 2.43 2.14c.59.92.88 1.97.88 3.15 0 1.74-.63 3.13-1.88 4.18-1.24 1.04-2.95 1.55-5.12 1.55h-2.74Zm0-3.32h2.82c.84 0 1.47-.2 1.9-.62.44-.42.66-1 .66-1.76 0-.84-.22-1.5-.67-2a2.39 2.39 0 0 0-1.84-.76h-2.86v5.14ZM137.22 28.06h-5.89l-1.03 3.34h-4.6l6.55-17.84h4.04l6.6 17.84h-4.63l-1.04-3.34Zm-4.86-3.32h3.83l-1.92-6.18-1.91 6.18ZM150.13 24.34h-2.03v7.06h-4.3V13.56h4.3v6.9h1.65l3.43-6.9h5.2l-4.9 8.23 5.52 9.6h-5.09l-3.78-7.05Z" fill="#000"/><path fill-rule="evenodd" clip-rule="evenodd" d="M43.26 23.78c.99-.98.99-2.58 0-3.56L23.78.74a2.51 2.51 0 0 0-3.56 0L.74 20.22a2.51 2.51 0 0 0 0 3.56l19.48 19.48c.98.99 2.58.99 3.56 0l19.48-19.48Zm-8.37 0c.98-.98.98-2.58 0-3.56L23.78 9.11a2.51 2.51 0 0 0-3.56 0L9.11 20.22a2.51 2.51 0 0 0 0 3.56l11.11 11.11c.98.98 2.58.98 3.56 0l11.11-11.11Z" fill="#FEC80B"/></svg>